<svg viewBox="0 0 64 64" xmlns="http://www.w3.org/2000/svg" fill="#000000"><g id="SVGRepo_bgCarrier" stroke-width="0"></g><g id="SVGRepo_tracerCarrier" stroke-linecap="round" stroke-linejoin="round"></g><g id="SVGRepo_iconCarrier"> <title>islamization</title> <g id="islamization"> <circle cx="39.5" cy="25.5" r="21.5" style="fill:#e5efef"></circle> <circle cx="8.5" cy="45.5" r="1.5" style="fill:#4c241d"></circle> <circle cx="35.51" cy="40.408" r="20.408" style="fill:#c1dbdc;stroke:#4c241d;stroke-linecap:round;stroke-linejoin:round;stroke-width:2px"></circle> <path d="M38.917,20.289A30.785,30.785,0,0,0,39.9,28.86a2.148,2.148,0,0,1-1.123,2.5l-1.866.933a2.167,2.167,0,0,1-2.5-.406,2.233,2.233,0,0,0-2.919-.208l-5.678,4.259A4.626,4.626,0,0,0,24.2,41.1l.534,1.6A4.823,4.823,0,0,0,28.363,45.9l.79.159a4.048,4.048,0,0,1,3.176,3.175l.448,2.24a3.2,3.2,0,0,0,1.361,2.033l.429.285a3.2,3.2,0,0,0,4.033-.4l.031-.031a4.566,4.566,0,0,0,1.239-4.044,12.28,12.28,0,0,1,.56-6.672,5.4,5.4,0,0,0-.568-4.991l-.024-.035A1.348,1.348,0,0,1,40,35.917l.536-.536a2.269,2.269,0,0,1,2.621-.425l1.729.864a5.837,5.837,0,0,0,3.683.516l6.644-1.246A20.425,20.425,0,0,0,38.917,20.289Z" style="fill:#a9ba5a;stroke:#4c241d;stroke-linecap:round;stroke-linejoin:round;stroke-width:2px"></path> <circle cx="10" cy="39" r="1" style="fill:#4c241d"></circle> <line x1="57" y1="53.463" x2="57" y2="54.878" style="fill:none;stroke:#4c241d;stroke-linecap:round;stroke-linejoin:round;stroke-width:2px"></line> <line x1="57" y1="59.122" x2="57" y2="60.537" style="fill:none;stroke:#4c241d;stroke-linecap:round;stroke-linejoin:round;stroke-width:2px"></line> <line x1="53.463" y1="57" x2="54.878" y2="57" style="fill:none;stroke:#4c241d;stroke-linecap:round;stroke-linejoin:round;stroke-width:2px"></line> <line x1="59.122" y1="57" x2="60.537" y2="57" style="fill:none;stroke:#4c241d;stroke-linecap:round;stroke-linejoin:round;stroke-width:2px"></line> <path d="M41,11V6.653A2.653,2.653,0,0,0,38.347,4H6.653A2.653,2.653,0,0,0,4,6.653V30.347A2.653,2.653,0,0,0,6.653,33H30l5,5V33h3.347A2.653,2.653,0,0,0,41,30.347V17" style="fill:#ffffff;stroke:#4c241d;stroke-linecap:round;stroke-linejoin:round;stroke-width:2px"></path> <path d="M20.036,20.578a10.122,10.122,0,0,1,1.4-12.238A10.12,10.12,0,1,0,31.492,25.106,10.122,10.122,0,0,1,20.036,20.578Z" style="fill:#fc8c29;stroke:#4c241d;stroke-linecap:round;stroke-linejoin:round;stroke-width:2px"></path> <path d="M25.114,8.451l1.787.911a.227.227,0,0,0,.263-.042L28.582,7.9a.226.226,0,0,1,.383.195l-.314,1.981a.225.225,0,0,0,.121.237l1.787.911a.226.226,0,0,1-.067.424l-1.981.314a.225.225,0,0,0-.188.188l-.314,1.981a.226.226,0,0,1-.425.067l-.91-1.787a.228.228,0,0,0-.237-.121l-1.981.314a.226.226,0,0,1-.2-.383l1.418-1.418a.228.228,0,0,0,.042-.263L24.81,8.755A.226.226,0,0,1,25.114,8.451Z" style="fill:#4c241d"></path> </g> </g></svg>