<?xml version="1.0" encoding="UTF-8" standalone="no"?>
<!DOCTYPE svg PUBLIC "-//W3C//DTD SVG 1.1//EN" "http://www.w3.org/Graphics/SVG/1.1/DTD/svg11.dtd">
<svg xmlns="http://www.w3.org/2000/svg" version="1.1" viewBox="0.00 0.00 2114.00 568.00">
<g stroke-width="2.00" fill="none" stroke-linecap="butt">
<path stroke="#80e6de" vector-effect="non-scaling-stroke" d="
  M 208.48 281.03
  L 8.66 322.62
  A 1.80 1.80 0.0 0 0 7.27 324.76
  L 42.43 488.61
  A 1.46 1.44 89.6 0 0 43.55 489.73
  L 396.76 563.48
  A 2.26 2.25 -71.8 0 0 399.26 562.21
  Q 437.72 478.36 475.61 394.01
  Q 480.34 383.49 481.55 372.01
  Q 500.12 196.72 518.69 21.81
  A 1.92 1.92 0.0 0 0 516.98 19.70
  L 378.26 5.15
  Q 377.05 5.03 376.24 5.99
  Q 375.75 6.57 375.55 8.42
  Q 362.93 127.94 350.14 247.43
  Q 350.06 248.17 349.88 248.72
  A 0.28 0.27 -42.6 0 1 349.35 248.70
  L 305.84 47.49
  Q 305.07 43.92 301.49 44.67
  L 166.33 72.82
  A 1.83 1.82 78.1 0 0 164.92 75.00
  L 209.09 280.10
  A 0.79 0.79 0.0 0 1 208.48 281.03"
/>
<path stroke="#80e6de" vector-effect="non-scaling-stroke" d="
  M 1192.35 192.43
  A 28.83 28.83 0.0 0 0 1163.52 163.60
  A 28.83 28.83 0.0 0 0 1134.69 192.43
  A 28.83 28.83 0.0 0 0 1163.52 221.26
  A 28.83 28.83 0.0 0 0 1192.35 192.43"
/>
<path stroke="#80e6de" vector-effect="non-scaling-stroke" d="
  M 705.38 242.55
  C 611.43 251.77 607.00 407.22 699.43 425.80
  C 726.12 431.17 750.24 420.61 768.85 402.37
  A 1.07 1.07 0.0 0 1 770.64 402.92
  L 774.51 421.82
  A 2.42 2.42 0.0 0 0 776.88 423.75
  L 819.74 423.75
  Q 822.92 423.75 822.20 420.65
  C 818.49 404.64 814.76 388.02 814.76 371.75
  Q 814.75 269.68 814.75 167.98
  A 0.98 0.98 0.0 0 0 813.77 167.00
  L 770.00 167.00
  A 1.00 1.00 0.0 0 0 769.00 168.00
  L 769.00 264.93
  A 0.90 0.90 0.0 0 1 767.45 265.56
  Q 741.56 239.00 705.38 242.55"
/>
<path stroke="#80e6de" vector-effect="non-scaling-stroke" d="
  M 1099.75 168.41
  A 1.42 1.42 0.0 0 0 1098.33 166.99
  L 1055.43 166.99
  A 1.42 1.42 0.0 0 0 1054.01 168.41
  L 1054.01 422.31
  A 1.42 1.42 0.0 0 0 1055.43 423.73
  L 1098.33 423.73
  A 1.42 1.42 0.0 0 0 1099.75 422.31
  L 1099.75 168.41"
/>
<path stroke="#80e6de" vector-effect="non-scaling-stroke" d="
  M 845.47 336.45
  C 848.90 429.33 944.43 445.38 1011.34 407.15
  A 2.01 2.01 0.0 0 0 1012.18 404.59
  L 996.20 368.83
  A 1.99 1.99 0.0 0 0 993.48 367.87
  C 962.99 383.44 917.97 390.45 894.94 357.76
  A 1.91 1.90 -17.6 0 1 896.50 354.76
  L 1021.22 354.73
  A 1.18 1.18 0.0 0 0 1022.38 353.77
  C 1034.07 293.44 996.58 242.60 933.98 241.54
  C 880.71 240.64 843.56 284.71 845.47 336.45"
/>
<path stroke="#80e6de" vector-effect="non-scaling-stroke" d="
  M 1401.01 374.04
  C 1426.43 438.38 1509.43 436.51 1558.99 407.75
  Q 1560.55 406.85 1559.81 405.20
  L 1543.88 369.74
  A 1.74 1.73 64.8 0 0 1541.54 368.89
  C 1510.46 383.88 1467.43 391.15 1443.15 359.38
  Q 1442.40 358.39 1442.11 357.60
  A 1.58 1.58 0.0 0 1 1443.59 355.48
  L 1568.68 355.24
  Q 1570.18 355.24 1570.43 353.76
  C 1578.83 303.69 1554.05 254.01 1501.22 243.96
  C 1422.22 228.93 1373.26 303.80 1401.01 374.04"
/>
<path stroke="#80e6de" vector-effect="non-scaling-stroke" d="
  M 1603.59 423.74
  L 1646.46 423.74
  A 1.55 1.55 0.0 0 0 1648.01 422.19
  Q 1647.97 373.07 1648.03 323.48
  Q 1648.04 312.81 1649.52 308.82
  C 1657.42 287.62 1689.83 291.05 1705.29 298.29
  A 2.04 2.04 0.0 0 0 1708.02 297.28
  L 1728.37 251.55
  A 0.84 0.84 0.0 0 0 1727.96 250.45
  C 1698.14 236.06 1669.03 240.38 1647.35 266.43
  A 0.59 0.59 0.0 0 1 1646.32 266.18
  L 1642.30 247.22
  Q 1641.99 245.75 1640.48 245.75
  L 1596.51 245.75
  A 1.30 1.29 -6.0 0 0 1595.24 247.31
  C 1598.54 262.94 1602.16 278.32 1602.18 294.00
  Q 1602.26 358.45 1602.25 422.40
  A 1.34 1.34 0.0 0 0 1603.59 423.74"
/>
<path stroke="#80e6de" vector-effect="non-scaling-stroke" d="
  M 1734.67 377.82
  C 1755.64 422.66 1808.18 437.94 1852.00 419.59
  C 1884.55 405.96 1904.13 377.26 1905.95 342.06
  C 1908.68 289.32 1875.28 244.80 1820.00 242.30
  C 1745.86 238.94 1704.63 313.59 1734.67 377.82"
/>
<path stroke="#80e6de" vector-effect="non-scaling-stroke" d="
  M 1949.47 273.18
  C 1910.52 317.94 1926.00 399.48 1984.08 420.69
  C 2009.81 430.08 2038.76 429.06 2063.01 416.25
  C 2115.92 388.32 2123.36 314.02 2086.06 271.17
  C 2050.96 230.84 1983.90 233.61 1949.47 273.18"
/>
<path stroke="#80e6de" vector-effect="non-scaling-stroke" d="
  M 1186.76 247.48
  A 1.74 1.74 0.0 0 0 1185.02 245.74
  L 1142.74 245.74
  A 1.74 1.74 0.0 0 0 1141.00 247.48
  L 1141.00 422.00
  A 1.74 1.74 0.0 0 0 1142.74 423.74
  L 1185.02 423.74
  A 1.74 1.74 0.0 0 0 1186.76 422.00
  L 1186.76 247.48"
/>
<path stroke="#80e6de" vector-effect="non-scaling-stroke" d="
  M 1258.93 423.11
  A 0.87 0.87 0.0 0 0 1259.77 423.75
  L 1332.02 423.75
  A 0.87 0.87 0.0 0 0 1332.86 423.11
  L 1380.33 246.85
  A 0.87 0.87 0.0 0 0 1379.49 245.75
  L 1331.40 245.75
  A 0.87 0.87 0.0 0 0 1330.56 246.41
  L 1296.42 386.40
  A 0.87 0.87 0.0 0 1 1294.73 386.40
  L 1260.63 246.41
  A 0.87 0.87 0.0 0 0 1259.79 245.75
  L 1212.16 245.75
  A 0.87 0.87 0.0 0 0 1211.32 246.85
  L 1258.93 423.11"
/>
<path stroke="#80e6de" vector-effect="non-scaling-stroke" d="
  M 271.12 348.10
  C 275.51 322.70 231.83 311.53 225.59 337.26
  C 220.75 357.22 231.43 367.78 251.27 367.02
  C 261.97 366.60 269.41 357.97 271.12 348.10"
/>
<path stroke="#80e6de" vector-effect="non-scaling-stroke" d="
  M 370.5775 364.3624
  A 20.37 20.37 0.0 0 0 358.4941 338.2116
  L 353.8955 336.5196
  A 20.37 20.37 0.0 0 0 327.7447 348.6030
  L 326.1425 352.9576
  A 20.37 20.37 0.0 0 0 338.2259 379.1084
  L 342.8245 380.8004
  A 20.37 20.37 0.0 0 0 368.9753 368.7170
  L 370.5775 364.3624"
/>
<path stroke="#80e6de" vector-effect="non-scaling-stroke" d="
  M 769.6489 335.2243
  A 46.46 45.19 0.4 0 0 723.5055 289.7111
  A 46.46 45.19 0.4 0 0 676.7311 334.5757
  A 46.46 45.19 0.4 0 0 722.8745 380.0889
  A 46.46 45.19 0.4 0 0 769.6489 335.2243"
/>
<path stroke="#80e6de" vector-effect="non-scaling-stroke" d="
  M 891.76 318.34
  C 892.53 318.39 893.73 318.84 894.44 318.83
  Q 926.13 318.51 957.82 318.51
  C 962.35 318.50 970.16 319.04 976.30 318.59
  A 1.65 1.65 0.0 0 0 977.73 316.39
  Q 971.29 298.31 953.96 291.37
  C 930.05 281.79 897.55 288.45 890.72 316.91
  Q 890.40 318.23 891.76 318.34"
/>
<path stroke="#80e6de" vector-effect="non-scaling-stroke" d="
  M 1525.84 317.82
  C 1522.49 276.90 1440.76 279.02 1439.65 317.86
  A 0.80 0.79 -89.3 0 0 1440.45 318.69
  L 1525.28 318.42
  A 0.56 0.55 -2.4 0 0 1525.84 317.82"
/>
<path stroke="#80e6de" vector-effect="non-scaling-stroke" d="
  M 1862.0829 334.0307
  A 46.37 45.16 -1.0 0 0 1814.9318 289.6869
  A 46.37 45.16 -1.0 0 0 1769.3571 335.6493
  A 46.37 45.16 -1.0 0 0 1816.5082 379.9931
  A 46.37 45.16 -1.0 0 0 1862.0829 334.0307"
/>
<path stroke="#80e6de" vector-effect="non-scaling-stroke" d="
  M 2065.2182 335.2749
  A 46.40 45.19 0.5 0 0 2019.2144 289.6817
  A 46.40 45.19 0.5 0 0 1972.4218 334.4651
  A 46.40 45.19 0.5 0 0 2018.4256 380.0583
  A 46.40 45.19 0.5 0 0 2065.2182 335.2749"
/>
</g>
<path fill="#00ccbc" d="
  M 0.00 0.00
  L 2114.00 0.00
  L 2114.00 568.00
  L 0.00 568.00
  L 0.00 0.00
  Z
  M 208.48 281.03
  L 8.66 322.62
  A 1.80 1.80 0.0 0 0 7.27 324.76
  L 42.43 488.61
  A 1.46 1.44 89.6 0 0 43.55 489.73
  L 396.76 563.48
  A 2.26 2.25 -71.8 0 0 399.26 562.21
  Q 437.72 478.36 475.61 394.01
  Q 480.34 383.49 481.55 372.01
  Q 500.12 196.72 518.69 21.81
  A 1.92 1.92 0.0 0 0 516.98 19.70
  L 378.26 5.15
  Q 377.05 5.03 376.24 5.99
  Q 375.75 6.57 375.55 8.42
  Q 362.93 127.94 350.14 247.43
  Q 350.06 248.17 349.88 248.72
  A 0.28 0.27 -42.6 0 1 349.35 248.70
  L 305.84 47.49
  Q 305.07 43.92 301.49 44.67
  L 166.33 72.82
  A 1.83 1.82 78.1 0 0 164.92 75.00
  L 209.09 280.10
  A 0.79 0.79 0.0 0 1 208.48 281.03
  Z
  M 1192.35 192.43
  A 28.83 28.83 0.0 0 0 1163.52 163.60
  A 28.83 28.83 0.0 0 0 1134.69 192.43
  A 28.83 28.83 0.0 0 0 1163.52 221.26
  A 28.83 28.83 0.0 0 0 1192.35 192.43
  Z
  M 705.38 242.55
  C 611.43 251.77 607.00 407.22 699.43 425.80
  C 726.12 431.17 750.24 420.61 768.85 402.37
  A 1.07 1.07 0.0 0 1 770.64 402.92
  L 774.51 421.82
  A 2.42 2.42 0.0 0 0 776.88 423.75
  L 819.74 423.75
  Q 822.92 423.75 822.20 420.65
  C 818.49 404.64 814.76 388.02 814.76 371.75
  Q 814.75 269.68 814.75 167.98
  A 0.98 0.98 0.0 0 0 813.77 167.00
  L 770.00 167.00
  A 1.00 1.00 0.0 0 0 769.00 168.00
  L 769.00 264.93
  A 0.90 0.90 0.0 0 1 767.45 265.56
  Q 741.56 239.00 705.38 242.55
  Z
  M 1099.75 168.41
  A 1.42 1.42 0.0 0 0 1098.33 166.99
  L 1055.43 166.99
  A 1.42 1.42 0.0 0 0 1054.01 168.41
  L 1054.01 422.31
  A 1.42 1.42 0.0 0 0 1055.43 423.73
  L 1098.33 423.73
  A 1.42 1.42 0.0 0 0 1099.75 422.31
  L 1099.75 168.41
  Z
  M 845.47 336.45
  C 848.90 429.33 944.43 445.38 1011.34 407.15
  A 2.01 2.01 0.0 0 0 1012.18 404.59
  L 996.20 368.83
  A 1.99 1.99 0.0 0 0 993.48 367.87
  C 962.99 383.44 917.97 390.45 894.94 357.76
  A 1.91 1.90 -17.6 0 1 896.50 354.76
  L 1021.22 354.73
  A 1.18 1.18 0.0 0 0 1022.38 353.77
  C 1034.07 293.44 996.58 242.60 933.98 241.54
  C 880.71 240.64 843.56 284.71 845.47 336.45
  Z
  M 1401.01 374.04
  C 1426.43 438.38 1509.43 436.51 1558.99 407.75
  Q 1560.55 406.85 1559.81 405.20
  L 1543.88 369.74
  A 1.74 1.73 64.8 0 0 1541.54 368.89
  C 1510.46 383.88 1467.43 391.15 1443.15 359.38
  Q 1442.40 358.39 1442.11 357.60
  A 1.58 1.58 0.0 0 1 1443.59 355.48
  L 1568.68 355.24
  Q 1570.18 355.24 1570.43 353.76
  C 1578.83 303.69 1554.05 254.01 1501.22 243.96
  C 1422.22 228.93 1373.26 303.80 1401.01 374.04
  Z
  M 1603.59 423.74
  L 1646.46 423.74
  A 1.55 1.55 0.0 0 0 1648.01 422.19
  Q 1647.97 373.07 1648.03 323.48
  Q 1648.04 312.81 1649.52 308.82
  C 1657.42 287.62 1689.83 291.05 1705.29 298.29
  A 2.04 2.04 0.0 0 0 1708.02 297.28
  L 1728.37 251.55
  A 0.84 0.84 0.0 0 0 1727.96 250.45
  C 1698.14 236.06 1669.03 240.38 1647.35 266.43
  A 0.59 0.59 0.0 0 1 1646.32 266.18
  L 1642.30 247.22
  Q 1641.99 245.75 1640.48 245.75
  L 1596.51 245.75
  A 1.30 1.29 -6.0 0 0 1595.24 247.31
  C 1598.54 262.94 1602.16 278.32 1602.18 294.00
  Q 1602.26 358.45 1602.25 422.40
  A 1.34 1.34 0.0 0 0 1603.59 423.74
  Z
  M 1734.67 377.82
  C 1755.64 422.66 1808.18 437.94 1852.00 419.59
  C 1884.55 405.96 1904.13 377.26 1905.95 342.06
  C 1908.68 289.32 1875.28 244.80 1820.00 242.30
  C 1745.86 238.94 1704.63 313.59 1734.67 377.82
  Z
  M 1949.47 273.18
  C 1910.52 317.94 1926.00 399.48 1984.08 420.69
  C 2009.81 430.08 2038.76 429.06 2063.01 416.25
  C 2115.92 388.32 2123.36 314.02 2086.06 271.17
  C 2050.96 230.84 1983.90 233.61 1949.47 273.18
  Z
  M 1186.76 247.48
  A 1.74 1.74 0.0 0 0 1185.02 245.74
  L 1142.74 245.74
  A 1.74 1.74 0.0 0 0 1141.00 247.48
  L 1141.00 422.00
  A 1.74 1.74 0.0 0 0 1142.74 423.74
  L 1185.02 423.74
  A 1.74 1.74 0.0 0 0 1186.76 422.00
  L 1186.76 247.48
  Z
  M 1258.93 423.11
  A 0.87 0.87 0.0 0 0 1259.77 423.75
  L 1332.02 423.75
  A 0.87 0.87 0.0 0 0 1332.86 423.11
  L 1380.33 246.85
  A 0.87 0.87 0.0 0 0 1379.49 245.75
  L 1331.40 245.75
  A 0.87 0.87 0.0 0 0 1330.56 246.41
  L 1296.42 386.40
  A 0.87 0.87 0.0 0 1 1294.73 386.40
  L 1260.63 246.41
  A 0.87 0.87 0.0 0 0 1259.79 245.75
  L 1212.16 245.75
  A 0.87 0.87 0.0 0 0 1211.32 246.85
  L 1258.93 423.11
  Z"
/>
<path fill="#ffffff" d="
  M 208.48 281.03
  A 0.79 0.79 0.0 0 0 209.09 280.10
  L 164.92 75.00
  A 1.83 1.82 78.1 0 1 166.33 72.82
  L 301.49 44.67
  Q 305.07 43.92 305.84 47.49
  L 349.35 248.70
  A 0.28 0.27 -42.6 0 0 349.88 248.72
  Q 350.06 248.17 350.14 247.43
  Q 362.93 127.94 375.55 8.42
  Q 375.75 6.57 376.24 5.99
  Q 377.05 5.03 378.26 5.15
  L 516.98 19.70
  A 1.92 1.92 0.0 0 1 518.69 21.81
  Q 500.12 196.72 481.55 372.01
  Q 480.34 383.49 475.61 394.01
  Q 437.72 478.36 399.26 562.21
  A 2.26 2.25 -71.8 0 1 396.76 563.48
  L 43.55 489.73
  A 1.46 1.44 89.6 0 1 42.43 488.61
  L 7.27 324.76
  A 1.80 1.80 0.0 0 1 8.66 322.62
  L 208.48 281.03
  Z
  M 271.12 348.10
  C 275.51 322.70 231.83 311.53 225.59 337.26
  C 220.75 357.22 231.43 367.78 251.27 367.02
  C 261.97 366.60 269.41 357.97 271.12 348.10
  Z
  M 370.5775 364.3624
  A 20.37 20.37 0.0 0 0 358.4941 338.2116
  L 353.8955 336.5196
  A 20.37 20.37 0.0 0 0 327.7447 348.6030
  L 326.1425 352.9576
  A 20.37 20.37 0.0 0 0 338.2259 379.1084
  L 342.8245 380.8004
  A 20.37 20.37 0.0 0 0 368.9753 368.7170
  L 370.5775 364.3624
  Z"
/>
<circle fill="#ffffff" cx="1163.52" cy="192.43" r="28.83"/>
<path fill="#ffffff" d="
  M 699.43 425.80
  C 607.00 407.22 611.43 251.77 705.38 242.55
  Q 741.56 239.00 767.45 265.56
  A 0.90 0.90 0.0 0 0 769.00 264.93
  L 769.00 168.00
  A 1.00 1.00 0.0 0 1 770.00 167.00
  L 813.77 167.00
  A 0.98 0.98 0.0 0 1 814.75 167.98
  Q 814.75 269.68 814.76 371.75
  C 814.76 388.02 818.49 404.64 822.20 420.65
  Q 822.92 423.75 819.74 423.75
  L 776.88 423.75
  A 2.42 2.42 0.0 0 1 774.51 421.82
  L 770.64 402.92
  A 1.07 1.07 0.0 0 0 768.85 402.37
  C 750.24 420.61 726.12 431.17 699.43 425.80
  Z
  M 769.6489 335.2243
  A 46.46 45.19 0.4 0 0 723.5055 289.7111
  A 46.46 45.19 0.4 0 0 676.7311 334.5757
  A 46.46 45.19 0.4 0 0 722.8745 380.0889
  A 46.46 45.19 0.4 0 0 769.6489 335.2243
  Z"
/>
<rect fill="#ffffff" x="1054.01" y="166.99" width="45.74" height="256.74" rx="1.42"/>
<path fill="#ffffff" d="
  M 1011.34 407.15
  C 944.43 445.38 848.90 429.33 845.47 336.45
  C 843.56 284.71 880.71 240.64 933.98 241.54
  C 996.58 242.60 1034.07 293.44 1022.38 353.77
  A 1.18 1.18 0.0 0 1 1021.22 354.73
  L 896.50 354.76
  A 1.91 1.90 -17.6 0 0 894.94 357.76
  C 917.97 390.45 962.99 383.44 993.48 367.87
  A 1.99 1.99 0.0 0 1 996.20 368.83
  L 1012.18 404.59
  A 2.01 2.01 0.0 0 1 1011.34 407.15
  Z
  M 891.76 318.34
  C 892.53 318.39 893.73 318.84 894.44 318.83
  Q 926.13 318.51 957.82 318.51
  C 962.35 318.50 970.16 319.04 976.30 318.59
  A 1.65 1.65 0.0 0 0 977.73 316.39
  Q 971.29 298.31 953.96 291.37
  C 930.05 281.79 897.55 288.45 890.72 316.91
  Q 890.40 318.23 891.76 318.34
  Z"
/>
<path fill="#ffffff" d="
  M 1558.99 407.75
  C 1509.43 436.51 1426.43 438.38 1401.01 374.04
  C 1373.26 303.80 1422.22 228.93 1501.22 243.96
  C 1554.05 254.01 1578.83 303.69 1570.43 353.76
  Q 1570.18 355.24 1568.68 355.24
  L 1443.59 355.48
  A 1.58 1.58 0.0 0 0 1442.11 357.60
  Q 1442.40 358.39 1443.15 359.38
  C 1467.43 391.15 1510.46 383.88 1541.54 368.89
  A 1.74 1.73 64.8 0 1 1543.88 369.74
  L 1559.81 405.20
  Q 1560.55 406.85 1558.99 407.75
  Z
  M 1525.84 317.82
  C 1522.49 276.90 1440.76 279.02 1439.65 317.86
  A 0.80 0.79 -89.3 0 0 1440.45 318.69
  L 1525.28 318.42
  A 0.56 0.55 -2.4 0 0 1525.84 317.82
  Z"
/>
<path fill="#ffffff" d="
  M 1603.59 423.74
  A 1.34 1.34 0.0 0 1 1602.25 422.40
  Q 1602.26 358.45 1602.18 294.00
  C 1602.16 278.32 1598.54 262.94 1595.24 247.31
  A 1.30 1.29 -6.0 0 1 1596.51 245.75
  L 1640.48 245.75
  Q 1641.99 245.75 1642.30 247.22
  L 1646.32 266.18
  A 0.59 0.59 0.0 0 0 1647.35 266.43
  C 1669.03 240.38 1698.14 236.06 1727.96 250.45
  A 0.84 0.84 0.0 0 1 1728.37 251.55
  L 1708.02 297.28
  A 2.04 2.04 0.0 0 1 1705.29 298.29
  C 1689.83 291.05 1657.42 287.62 1649.52 308.82
  Q 1648.04 312.81 1648.03 323.48
  Q 1647.97 373.07 1648.01 422.19
  A 1.55 1.55 0.0 0 1 1646.46 423.74
  L 1603.59 423.74
  Z"
/>
<path fill="#ffffff" d="
  M 1852.00 419.59
  C 1808.18 437.94 1755.64 422.66 1734.67 377.82
  C 1704.63 313.59 1745.86 238.94 1820.00 242.30
  C 1875.28 244.80 1908.68 289.32 1905.95 342.06
  C 1904.13 377.26 1884.55 405.96 1852.00 419.59
  Z
  M 1862.0829 334.0307
  A 46.37 45.16 -1.0 0 0 1814.9318 289.6869
  A 46.37 45.16 -1.0 0 0 1769.3571 335.6493
  A 46.37 45.16 -1.0 0 0 1816.5082 379.9931
  A 46.37 45.16 -1.0 0 0 1862.0829 334.0307
  Z"
/>
<path fill="#ffffff" d="
  M 1984.08 420.69
  C 1926.00 399.48 1910.52 317.94 1949.47 273.18
  C 1983.90 233.61 2050.96 230.84 2086.06 271.17
  C 2123.36 314.02 2115.92 388.32 2063.01 416.25
  C 2038.76 429.06 2009.81 430.08 1984.08 420.69
  Z
  M 2065.2182 335.2749
  A 46.40 45.19 0.5 0 0 2019.2144 289.6817
  A 46.40 45.19 0.5 0 0 1972.4218 334.4651
  A 46.40 45.19 0.5 0 0 2018.4256 380.0583
  A 46.40 45.19 0.5 0 0 2065.2182 335.2749
  Z"
/>
<rect fill="#ffffff" x="1141.00" y="245.74" width="45.76" height="178.00" rx="1.74"/>
<path fill="#ffffff" d="
  M 1258.93 423.11
  L 1211.32 246.85
  A 0.87 0.87 0.0 0 1 1212.16 245.75
  L 1259.79 245.75
  A 0.87 0.87 0.0 0 1 1260.63 246.41
  L 1294.73 386.40
  A 0.87 0.87 0.0 0 0 1296.42 386.40
  L 1330.56 246.41
  A 0.87 0.87 0.0 0 1 1331.40 245.75
  L 1379.49 245.75
  A 0.87 0.87 0.0 0 1 1380.33 246.85
  L 1332.86 423.11
  A 0.87 0.87 0.0 0 1 1332.02 423.75
  L 1259.77 423.75
  A 0.87 0.87 0.0 0 1 1258.93 423.11
  Z"
/>
<path fill="#00ccbc" d="
  M 891.76 318.34
  Q 890.40 318.23 890.72 316.91
  C 897.55 288.45 930.05 281.79 953.96 291.37
  Q 971.29 298.31 977.73 316.39
  A 1.65 1.65 0.0 0 1 976.30 318.59
  C 970.16 319.04 962.35 318.50 957.82 318.51
  Q 926.13 318.51 894.44 318.83
  C 893.73 318.84 892.53 318.39 891.76 318.34
  Z"
/>
<path fill="#00ccbc" d="
  M 1439.65 317.86
  C 1440.76 279.02 1522.49 276.90 1525.84 317.82
  A 0.56 0.55 -2.4 0 1 1525.28 318.42
  L 1440.45 318.69
  A 0.80 0.79 -89.3 0 1 1439.65 317.86
  Z"
/>
<ellipse fill="#00ccbc" cx="0.00" cy="0.00" transform="translate(723.19,334.90) rotate(0.4)" rx="46.46" ry="45.19"/>
<ellipse fill="#00ccbc" cx="0.00" cy="0.00" transform="translate(1815.72,334.84) rotate(-1.0)" rx="46.37" ry="45.16"/>
<ellipse fill="#00ccbc" cx="0.00" cy="0.00" transform="translate(2018.82,334.87) rotate(0.5)" rx="46.40" ry="45.19"/>
<path fill="#00ccbc" d="
  M 225.59 337.26
  C 231.83 311.53 275.51 322.70 271.12 348.10
  C 269.41 357.97 261.97 366.60 251.27 367.02
  C 231.43 367.78 220.75 357.22 225.59 337.26
  Z"
/>
<rect fill="#00ccbc" x="-22.82" y="-22.69" transform="translate(348.36,358.66) rotate(20.2)" width="45.64" height="45.38" rx="20.37"/>
</svg>
