<svg height="200px" width="200px" version="1.1" id="Capa_1" xmlns="http://www.w3.org/2000/svg" xmlns:xlink="http://www.w3.org/1999/xlink" viewBox="0 0 405.345 405.345" xml:space="preserve" fill="#edcece"><g id="SVGRepo_bgCarrier" stroke-width="0"></g><g id="SVGRepo_tracerCarrier" stroke-linecap="round" stroke-linejoin="round"></g><g id="SVGRepo_iconCarrier"> <g> <g> <g> <path style="fill:#b872fd;" d="M202.174,83.476c-39.97,0-72.465,32.515-72.465,72.475c0,39.95,32.496,72.475,72.465,72.475 c39.96,0,72.465-32.525,72.465-72.475S242.134,83.476,202.174,83.476z M202.174,223.336c-37.205,0-67.395-30.17-67.395-67.375 c0-37.215,30.19-67.385,67.395-67.385c37.215,0,67.375,30.16,67.375,67.385C269.559,193.166,239.369,223.336,202.174,223.336z M45.539,0v314.287h98.864l58.259,91.058l58.269-91.058h98.874V0H45.539z M116.226,124.247L116.226,124.247 c-0.381,12.506-14.079,17.283-14.079,17.283v25.109h0.02l-0.01,57.761c0,0-5.54,7.171-12.711,0v-82.89h0.166 c-8.363-3.556-14.538-4.778-14.929-17.274h-0.059V85.079h6.272l3.068,37.85h7.406l0.928-38.631h6.028l0.733,38.631h8.705 l1.993-37.85h6.507l0.029,39.159L116.226,124.247L116.226,124.247z M202.174,235.324c-43.77,0-79.373-35.593-79.373-79.353 c0-43.78,35.593-79.363,79.373-79.363c43.761,0,79.373,35.593,79.373,79.363C281.537,199.731,245.935,235.324,202.174,235.324z M328.776,151.76h-15.359v77.692h-17.733V82.489h17.733C313.417,82.489,337.608,113.148,328.776,151.76z M226.551,155.951 c0,13.463-10.913,24.377-24.377,24.377s-24.377-10.913-24.377-24.377c0-13.463,10.913-24.377,24.377-24.377 S226.551,142.488,226.551,155.951z"></path> </g> </g> </g> </g></svg>