<svg viewBox="0 0 64 64" xmlns="http://www.w3.org/2000/svg" fill="#000000"><g id="SVGRepo_bgCarrier" stroke-width="0"></g><g id="SVGRepo_tracerCarrier" stroke-linecap="round" stroke-linejoin="round"></g><g id="SVGRepo_iconCarrier"> <title>chef-mustache-man-france-ico</title> <g id="chef-mustache-man-france-ico"> <circle cx="32" cy="35" r="23" style="fill:#e5efef"></circle> <line x1="9" y1="8" x2="9" y2="10" style="fill:none;stroke:#4c241d;stroke-linecap:round;stroke-linejoin:round;stroke-width:2px"></line> <line x1="9" y1="14" x2="9" y2="16" style="fill:none;stroke:#4c241d;stroke-linecap:round;stroke-linejoin:round;stroke-width:2px"></line> <line x1="5" y1="12" x2="7" y2="12" style="fill:none;stroke:#4c241d;stroke-linecap:round;stroke-linejoin:round;stroke-width:2px"></line> <line x1="11" y1="12" x2="13" y2="12" style="fill:none;stroke:#4c241d;stroke-linecap:round;stroke-linejoin:round;stroke-width:2px"></line> <circle cx="54.5" cy="32.5" r="2.5" style="fill:none;stroke:#4c241d;stroke-linecap:round;stroke-linejoin:round;stroke-width:2px"></circle> <path d="M8.082,28.667A1.069,1.069,0,1,1,7.013,27.6,1.07,1.07,0,0,1,8.082,28.667Z" style="fill:#4c241d"></path> <path d="M57.151,51.6a1.069,1.069,0,1,1-1.069-1.069A1.069,1.069,0,0,1,57.151,51.6Z" style="fill:#4c241d"></path> <path d="M20.764,30.577a5.627,5.627,0,0,0-3.689,5.268c-.016,2.429-.023,5.2-.023,5.57,0,10.185,6.055,18.442,13.524,18.442S44.1,51.6,44.1,41.415c0-.365-.008-3.144-.023-5.574a5.626,5.626,0,0,0-3.691-5.268A28.151,28.151,0,0,0,20.764,30.577Z" style="fill:#ffffff;stroke:#4c241d;stroke-linecap:round;stroke-linejoin:round;stroke-width:2px"></path> <path d="M31.93,50.762c.071-.522,1.1-1.058,1.757-.97l1.9.257a1.2,1.2,0,0,0,1.346-1.025h0" style="fill:none;stroke:#4c241d;stroke-linecap:round;stroke-linejoin:round;stroke-width:2px"></path> <path d="M29.07,50.762c-.071-.522-1.1-1.058-1.757-.97l-1.9.257a1.2,1.2,0,0,1-1.347-1.025h0" style="fill:none;stroke:#4c241d;stroke-linecap:round;stroke-linejoin:round;stroke-width:2px"></path> <path d="M32.9,26.356l3.558.274a9.618,9.618,0,0,1,8.733,11.26l-1.253,7.1a1.134,1.134,0,0,1-1.116.936h0a1.133,1.133,0,0,1-1.13-1.22l.478-6.214a7.749,7.749,0,0,0-6.045-8.158L32.9,29.618Z" style="fill:#bf7e68;stroke:#4c241d;stroke-linecap:round;stroke-linejoin:round;stroke-width:2px"></path> <path d="M36.165,27.444S32.853,36.5,19.856,34.7l-.974,9.086a1.183,1.183,0,0,1-1.176,1.057h0a1.183,1.183,0,0,1-1.181-1.109l-.657-10.5A4,4,0,0,1,19.856,28.9h0a4.72,4.72,0,0,1,4.72-4.72H32.9a3.262,3.262,0,0,1,3.262,3.262Z" style="fill:#bf7e68;stroke:#4c241d;stroke-linecap:round;stroke-linejoin:round;stroke-width:2px"></path> <path d="M48.106,9.245a3.462,3.462,0,0,0-5.383-2.908,4.609,4.609,0,0,0-6.74-1.119,3.461,3.461,0,0,0-6.024.983l-.051-.011a4.624,4.624,0,1,0-1.515,9.124,4.571,4.571,0,0,0,1.165.04L28.4,22.347,43.8,24.9l1.161-6.993a4.622,4.622,0,1,0,3.15-8.666Z" style="fill:#ffffff;stroke:#4c241d;stroke-linecap:round;stroke-linejoin:round;stroke-width:2px"></path> <path d="M33.624,19.4l-1.16,8.117a21.457,21.457,0,0,0,5.575.86l1.151-8.052Z" style="fill:#ffffff;stroke:#4c241d;stroke-linecap:round;stroke-linejoin:round;stroke-width:2px"></path> <path d="M29.014,18.633l-1.137,6.843a18.991,18.991,0,0,0,4.587,2.039l1.16-8.117Z" style="fill:#9dc1e4;stroke:#4c241d;stroke-linecap:round;stroke-linejoin:round;stroke-width:2px"></path> <path d="M39.19,20.323l-1.151,8.052a28.31,28.31,0,0,0,5.236-.342l1.137-6.843Z" style="fill:#f53e28;stroke:#4c241d;stroke-linecap:round;stroke-linejoin:round;stroke-width:2px"></path> </g> </g></svg>